<svg id="svgQrWrapper" viewBox="0 0 300 300" xmlns="http://www.w3.org/2000/svg" xmlns:xlink="http://www.w3.org/1999/xlink" style="width: 100%; height: 100%; background-color: rgb(255, 255, 255);"><svg xmlns="http://www.w3.org/2000/svg" viewBox="0 0 2000 2000" width="300" height="300" fill="none"><g transform=""><defs><style>.cls-lab22{fill:#edab07}.cls-lab23{fill:#ffbf00}.cls-lab24{fill:#fcc447}</style></defs><path d="M1479.22 1931.65H520.79c-93.08 0-168.81-75.73-168.81-168.81V804.41c0-93.08 75.73-168.81 168.81-168.81h958.43c93.08 0 168.81 75.73 168.81 168.81v958.43c0 93.08-75.73 168.81-168.81 168.81ZM520.78 683.77c-66.52 0-120.64 54.12-120.64 120.64v958.43c0 66.52 54.12 120.64 120.64 120.64h958.43c66.52 0 120.64-54.12 120.64-120.64V804.41c0-66.52-54.12-120.64-120.64-120.64H520.78Z" style="fill: rgb(84, 3, 117);"/><path d="M1416.79 537.15v122.53H583.21V537.15c0-152.55 81.95-285.96 204.23-358.58 4.9-2.91 9.86-5.73 14.89-8.43 58.82-31.75 126.15-49.78 197.67-49.78 115.09 0 219.29 46.65 294.72 122.07 75.42 75.43 122.07 179.62 122.07 294.72Z" class="cls-lab23"/><path d="M1416.79 537.15v122.53H583.21V554.69c5.33 2.36 11.24 3.66 17.45 3.66h691.56c23.87 0 43.22-19.35 43.22-43.23v-50.5c0-88.04-43.54-167.75-113.93-225.45-70.41-57.69-167.66-93.39-275.07-93.39-47.77 0-93.53 7.06-135.81 19.98 56.82-29.03 121.19-45.41 189.38-45.41 115.09 0 219.29 46.65 294.72 122.07 75.42 75.43 122.07 179.62 122.07 294.72Z" class="cls-lab22"/><rect width="936.72" height="121.74" x="531.64" y="604.01" class="cls-lab23" rx="60.87" ry="60.87"/><path d="M1468.36 664.88c0 16.81-6.81 32.03-17.83 43.05-11.02 11.02-26.24 17.83-43.05 17.83H592.51c-33.62 0-60.87-27.25-60.87-60.87 0-16.74 6.75-31.91 17.7-42.91a51.11 51.11 0 0 0-6.9 25.69v1.47c0 28.31 22.95 51.26 51.26 51.26h807.99c28.31 0 51.26-22.95 51.26-51.26v-1.47c0-13.27-5.04-25.36-13.31-34.47 17.24 10.74 28.72 29.87 28.72 51.69Z" class="cls-lab22"/><path d="M1029.02 413.38h-54.24c-26.76 0-49.14-24.7-51.66-57.02-5.7-73.03-11.4-146.06-17.11-219.1-2.89-36.95 21.07-68.9 51.66-68.9h84.66c30.16 0 53.97 31.09 51.75 67.59-4.44 73.03-8.87 146.06-13.31 219.1-2 32.89-24.57 58.33-51.75 58.33Z" class="cls-lab23"/><path d="M1042.33 68.35h-84.66c-30.6 0-54.55 31.95-51.65 68.91 5.7 73.02 11.4 146.06 17.11 219.09 2.52 32.33 24.89 57.02 51.65 57.02h54.25c27.17 0 49.75-25.44 51.74-58.33 4.44-73.03 8.87-146.06 13.31-219.09 2.22-36.5-21.59-67.59-51.75-67.59Zm36.92 79.02c-3.74 65.08-7.47 130.16-11.2 195.24-1.69 29.32-20.71 51.99-43.6 51.99h-45.69c-22.54 0-41.39-22.01-43.51-50.82-4.81-65.08-9.61-130.16-14.41-195.25-2.43-32.92 17.75-61.39 43.52-61.39h71.3c25.41 0 45.46 27.7 43.6 60.23ZM803.22 174.4l-27.94 404.66c-.29 4.17-3.7 7.36-7.73 7.34-.18 0-.34 0-.52-.01-4.26-.31-7.47-4.09-7.16-8.44l27.57-399.37c4.9-2.91 9.86-5.73 14.89-8.43.66 1.27.99 2.73.88 4.26ZM1231.71 586.45c-4.03 0-7.43-3.13-7.7-7.21l-26.52-395.75c-.29-4.26 2.93-7.94 7.19-8.23a7.732 7.732 0 0 1 8.23 7.19l26.52 395.75c.29 4.26-2.93 7.94-7.19 8.23-.18.01-.35.02-.52.02Z" class="cls-lab22"/><path d="M931.63 165.39c-.16 66.4 4.14 145.47 7.61 145.13 3.11-.31 3.38-64.17 13.53-148.79 1.02-8.48 2.58-20.27 10.99-31.28 24.41-31.94 80.31-23.05 80.31-27.9 0-3.64-31.49-8.13-65.1-4.23-14.43 1.67-21.79 2.61-28.74 7.61-18.12 13.02-18.56 41-18.6 59.46ZM570.12 659.62c16.75 32.86 78.21 25.38 213.04 25.36 108.41-.01 159.48 4.82 159.78.85.36-4.79-74.46-3.95-186.84-29.59-104.05-23.74-168.29-53.74-185.99-29.59-6.71 9.15-4.83 23.49 0 32.97ZM747.03 352.08c-6.85 71.6 3.14 132.61 6.76 132.73 3.09.1 4.08-43.96 13.7-151.51 8-89.55 12.38-115.63.63-121.08-20.8-9.64-73.4 54.01-66.74 62.93 4.18 5.6 28.57-14.58 43.12-5.07 14.67 9.59 6.47 40.97 2.54 82.01Z" class="cls-lab24"/><g transform="translate(470, 750)scale(3.6)" fill="none"><svg width="300" height="300"><style>.background-color{ fill: #fff; }.dot-color{ fill: #540374; }.corners-square-color-0-0{ fill: #ffbf00; }.corners-dot-color-0-0{ fill: #540374; }.corners-square-color-1-0{ fill: #ffbf00; }.corners-dot-color-1-0{ fill: #540374; }.corners-square-color-0-1{ fill: #ffbf00; }.corners-dot-color-0-1{ fill: #540374; }</style><defs/><g class="dot-color"><path d="M 5 85v 5a 5 5, 0, 0, 0, 5 5h 5v -5a 5 5, 0, 0, 0, -5 -5" transform="rotate(90,10,90)"/><path d="M 5 125v 10h 10v -5a 5 5, 0, 0, 0, -5 -5" transform="rotate(-90,10,130)"/><path d="M 5 135v 10h 10v -5a 5 5, 0, 0, 0, -5 -5" transform="rotate(90,10,140)"/><path d="M 5 155v 10h 10v -5a 5 5, 0, 0, 0, -5 -5" transform="rotate(-90,10,160)"/><path d="M 5 175v 10h 10v -5a 5 5, 0, 0, 0, -5 -5" transform="rotate(-90,10,180)"/><path d="M 5 185v 10h 10v -5a 5 5, 0, 0, 0, -5 -5" transform="rotate(90,10,190)"/><path d="M 5 205v 5a 5 5, 0, 0, 0, 5 5h 5v -5a 5 5, 0, 0, 0, -5 -5" transform="rotate(90,10,210)"/><path d="M 15 95v 10h 10v -5a 5 5, 0, 0, 0, -5 -5" transform="rotate(-90,20,100)"/><rect x="15" y="125" width="10" height="10" transform="rotate(0,20,130)"/><rect x="15" y="155" width="10" height="10" transform="rotate(0,20,160)"/><path d="M 15 195v 10h 10v -5a 5 5, 0, 0, 0, -5 -5" transform="rotate(-90,20,200)"/><path d="M 25 95v 10h 10v -5a 5 5, 0, 0, 0, -5 -5" transform="rotate(90,30,100)"/><rect x="25" y="125" width="10" height="10" transform="rotate(0,30,130)"/><path d="M 25 155v 10h 10v -5a 5 5, 0, 0, 0, -5 -5" transform="rotate(90,30,160)"/><rect x="25" y="195" width="10" height="10" transform="rotate(0,30,200)"/><path d="M 25 205v 10h 10v -5a 5 5, 0, 0, 0, -5 -5" transform="rotate(90,30,210)"/><path d="M 35 105v 10h 10v -5a 5 5, 0, 0, 0, -5 -5" transform="rotate(-90,40,110)"/><path d="M 35 125v 10h 10v -5a 5 5, 0, 0, 0, -5 -5" transform="rotate(90,40,130)"/><path d="M 35 165v 10h 10v -5a 5 5, 0, 0, 0, -5 -5" transform="rotate(-90,40,170)"/><path d="M 35 175v 10h 10v -5a 5 5, 0, 0, 0, -5 -5" transform="rotate(90,40,180)"/><rect x="35" y="195" width="10" height="10" transform="rotate(0,40,200)"/><path d="M 45 85v 10h 10v -5a 5 5, 0, 0, 0, -5 -5" transform="rotate(-90,50,90)"/><rect x="45" y="105" width="10" height="10" transform="rotate(0,50,110)"/><path d="M 45 145v 10h 10v -5a 5 5, 0, 0, 0, -5 -5" transform="rotate(-90,50,150)"/><rect x="45" y="155" width="10" height="10" transform="rotate(0,50,160)"/><rect x="45" y="165" width="10" height="10" transform="rotate(0,50,170)"/><path d="M 45 195v 10h 10v -5a 5 5, 0, 0, 0, -5 -5" transform="rotate(90,50,200)"/><rect x="55" y="85" width="10" height="10" transform="rotate(0,60,90)"/><rect x="55" y="105" width="10" height="10" transform="rotate(0,60,110)"/><path d="M 55 125v 10h 10v -5a 5 5, 0, 0, 0, -5 -5" transform="rotate(-90,60,130)"/><rect x="55" y="155" width="10" height="10" transform="rotate(0,60,160)"/><rect x="55" y="165" width="10" height="10" transform="rotate(0,60,170)"/><path d="M 55 185v 10h 10v -5a 5 5, 0, 0, 0, -5 -5" transform="rotate(-90,60,190)"/><path d="M 55 205v 10h 10v -5a 5 5, 0, 0, 0, -5 -5" transform="rotate(-90,60,210)"/><path d="M 65 85v 10h 10v -5a 5 5, 0, 0, 0, -5 -5" transform="rotate(90,70,90)"/><rect x="65" y="105" width="10" height="10" transform="rotate(0,70,110)"/><path d="M 65 125v 10h 10v -5a 5 5, 0, 0, 0, -5 -5" transform="rotate(90,70,130)"/><path d="M 65 145v 10h 10v -5a 5 5, 0, 0, 0, -5 -5" transform="rotate(-90,70,150)"/><rect x="65" y="165" width="10" height="10" transform="rotate(0,70,170)"/><path d="M 65 185v 10h 10v -5a 5 5, 0, 0, 0, -5 -5" transform="rotate(90,70,190)"/><rect x="65" y="205" width="10" height="10" transform="rotate(0,70,210)"/><rect x="75" y="105" width="10" height="10" transform="rotate(0,80,110)"/><path d="M 75 115v 10h 10v -5a 5 5, 0, 0, 0, -5 -5" transform="rotate(90,80,120)"/><path d="M 75 135v 10h 10v -5a 5 5, 0, 0, 0, -5 -5" transform="rotate(-90,80,140)"/><path d="M 75 145v 10h 10v -5a 5 5, 0, 0, 0, -5 -5" transform="rotate(90,80,150)"/><path d="M 75 165v 10h 10v -5a 5 5, 0, 0, 0, -5 -5" transform="rotate(90,80,170)"/><path d="M 75 205v 10h 10v -5a 5 5, 0, 0, 0, -5 -5" transform="rotate(90,80,210)"/><path d="M 85 15v 10h 10v -5a 5 5, 0, 0, 0, -5 -5" transform="rotate(-90,90,20)"/><rect x="85" y="25" width="10" height="10" transform="rotate(0,90,30)"/><rect x="85" y="35" width="10" height="10" transform="rotate(0,90,40)"/><rect x="85" y="45" width="10" height="10" transform="rotate(0,90,50)"/><rect x="85" y="55" width="10" height="10" transform="rotate(0,90,60)"/><rect x="85" y="65" width="10" height="10" transform="rotate(0,90,70)"/><rect x="85" y="75" width="10" height="10" transform="rotate(0,90,80)"/><path d="M 85 135v 10h 10v -5a 5 5, 0, 0, 0, -5 -5" transform="rotate(90,90,140)"/><path d="M 85 155v 5a 5 5, 0, 0, 0, 5 5h 5v -5a 5 5, 0, 0, 0, -5 -5" transform="rotate(90,90,160)"/><path d="M 85 185v 5a 5 5, 0, 0, 0, 5 5h 5v -5a 5 5, 0, 0, 0, -5 -5" transform="rotate(90,90,190)"/><path d="M 85 235v 10h 10v -5a 5 5, 0, 0, 0, -5 -5" transform="rotate(-90,90,240)"/><rect x="85" y="245" width="10" height="10" transform="rotate(0,90,250)"/><path d="M 85 285v 10h 10v -5a 5 5, 0, 0, 0, -5 -5" transform="rotate(-90,90,290)"/><rect x="95" y="15" width="10" height="10" transform="rotate(0,100,20)"/><rect x="95" y="25" width="10" height="10" transform="rotate(0,100,30)"/><rect x="95" y="35" width="10" height="10" transform="rotate(0,100,40)"/><rect x="95" y="45" width="10" height="10" transform="rotate(0,100,50)"/><rect x="95" y="55" width="10" height="10" transform="rotate(0,100,60)"/><rect x="95" y="75" width="10" height="10" transform="rotate(0,100,80)"/><rect x="95" y="85" width="10" height="10" transform="rotate(0,100,90)"/><path d="M 95 125v 10h 10v -5a 5 5, 0, 0, 0, -5 -5" transform="rotate(-90,100,130)"/><path d="M 95 145v 10h 10v -5a 5 5, 0, 0, 0, -5 -5" transform="rotate(-90,100,150)"/><path d="M 95 215v 10h 10v -5a 5 5, 0, 0, 0, -5 -5" transform="rotate(-90,100,220)"/><rect x="95" y="235" width="10" height="10" transform="rotate(0,100,240)"/><rect x="95" y="245" width="10" height="10" transform="rotate(0,100,250)"/><rect x="95" y="255" width="10" height="10" transform="rotate(0,100,260)"/><rect x="95" y="265" width="10" height="10" transform="rotate(0,100,270)"/><path d="M 95 285v 10h 10v -5a 5 5, 0, 0, 0, -5 -5" transform="rotate(90,100,290)"/><rect x="105" y="15" width="10" height="10" transform="rotate(0,110,20)"/><rect x="105" y="25" width="10" height="10" transform="rotate(0,110,30)"/><rect x="105" y="35" width="10" height="10" transform="rotate(0,110,40)"/><rect x="105" y="55" width="10" height="10" transform="rotate(0,110,60)"/><rect x="105" y="65" width="10" height="10" transform="rotate(0,110,70)"/><rect x="105" y="75" width="10" height="10" transform="rotate(0,110,80)"/><rect x="105" y="85" width="10" height="10" transform="rotate(0,110,90)"/><rect x="105" y="95" width="10" height="10" transform="rotate(0,110,100)"/><rect x="105" y="105" width="10" height="10" transform="rotate(0,110,110)"/><rect x="105" y="115" width="10" height="10" transform="rotate(0,110,120)"/><rect x="105" y="125" width="10" height="10" transform="rotate(0,110,130)"/><rect x="105" y="135" width="10" height="10" transform="rotate(0,110,140)"/><path d="M 105 145v 10h 10v -5a 5 5, 0, 0, 0, -5 -5" transform="rotate(90,110,150)"/><path d="M 105 165v 10h 10v -5a 5 5, 0, 0, 0, -5 -5" transform="rotate(-90,110,170)"/><path d="M 105 185v 5a 5 5, 0, 0, 0, 5 5h 5v -5a 5 5, 0, 0, 0, -5 -5" transform="rotate(90,110,190)"/><path d="M 105 205v 10h 10v -5a 5 5, 0, 0, 0, -5 -5" transform="rotate(-90,110,210)"/><rect x="105" y="215" width="10" height="10" transform="rotate(0,110,220)"/><rect x="105" y="225" width="10" height="10" transform="rotate(0,110,230)"/><path d="M 105 235v 10h 10v -5a 5 5, 0, 0, 0, -5 -5" transform="rotate(90,110,240)"/><rect x="105" y="255" width="10" height="10" transform="rotate(0,110,260)"/><path d="M 105 265v 10h 10v -5a 5 5, 0, 0, 0, -5 -5" transform="rotate(90,110,270)"/><path d="M 115 5v 10h 10v -5a 5 5, 0, 0, 0, -5 -5" transform="rotate(-90,120,10)"/><rect x="115" y="15" width="10" height="10" transform="rotate(0,120,20)"/><rect x="115" y="35" width="10" height="10" transform="rotate(0,120,40)"/><rect x="115" y="75" width="10" height="10" transform="rotate(0,120,80)"/><rect x="115" y="95" width="10" height="10" transform="rotate(0,120,100)"/><path d="M 115 105v 10h 10v -5a 5 5, 0, 0, 0, -5 -5" transform="rotate(90,120,110)"/><path d="M 115 135v 10h 10v -5a 5 5, 0, 0, 0, -5 -5" transform="rotate(90,120,140)"/><rect x="115" y="165" width="10" height="10" transform="rotate(0,120,170)"/><rect x="115" y="215" width="10" height="10" transform="rotate(0,120,220)"/><path d="M 115 225v 10h 10v -5a 5 5, 0, 0, 0, -5 -5" transform="rotate(90,120,230)"/><path d="M 115 245v 10h 10v -5a 5 5, 0, 0, 0, -5 -5" transform="rotate(-90,120,250)"/><rect x="115" y="255" width="10" height="10" transform="rotate(0,120,260)"/><path d="M 115 275v 10h 10v -5a 5 5, 0, 0, 0, -5 -5" transform="rotate(-90,120,280)"/><path d="M 125 15v 10h 10v -5a 5 5, 0, 0, 0, -5 -5" transform="rotate(90,130,20)"/><rect x="125" y="35" width="10" height="10" transform="rotate(0,130,40)"/><rect x="125" y="45" width="10" height="10" transform="rotate(0,130,50)"/><path d="M 125 65v 10h 10v -5a 5 5, 0, 0, 0, -5 -5" transform="rotate(-90,130,70)"/><path d="M 125 75v 10h 10v -5a 5 5, 0, 0, 0, -5 -5" transform="rotate(90,130,80)"/><path d="M 125 95v 10h 10v -5a 5 5, 0, 0, 0, -5 -5" transform="rotate(90,130,100)"/><path d="M 125 115v 5a 5 5, 0, 0, 0, 5 5h 5v -5a 5 5, 0, 0, 0, -5 -5" transform="rotate(90,130,120)"/><rect x="125" y="165" width="10" height="10" transform="rotate(0,130,170)"/><rect x="125" y="175" width="10" height="10" transform="rotate(0,130,180)"/><path d="M 125 195v 10h 10v -5a 5 5, 0, 0, 0, -5 -5" transform="rotate(-90,130,200)"/><rect x="125" y="215" width="10" height="10" transform="rotate(0,130,220)"/><path d="M 125 235v 5a 5 5, 0, 0, 0, 5 5h 5v -5a 5 5, 0, 0, 0, -5 -5" transform="rotate(90,130,240)"/><rect x="125" y="255" width="10" height="10" transform="rotate(0,130,260)"/><rect x="125" y="275" width="10" height="10" transform="rotate(0,130,280)"/><rect x="125" y="285" width="10" height="10" transform="rotate(0,130,290)"/><path d="M 135 25v 10h 10v -5a 5 5, 0, 0, 0, -5 -5" transform="rotate(-90,140,30)"/><rect x="135" y="35" width="10" height="10" transform="rotate(0,140,40)"/><rect x="135" y="45" width="10" height="10" transform="rotate(0,140,50)"/><path d="M 135 55v 10h 10v -5a 5 5, 0, 0, 0, -5 -5" transform="rotate(90,140,60)"/><path d="M 135 145v 10h 10v -5a 5 5, 0, 0, 0, -5 -5" transform="rotate(-90,140,150)"/><rect x="135" y="155" width="10" height="10" transform="rotate(0,140,160)"/><rect x="135" y="165" width="10" height="10" transform="rotate(0,140,170)"/><rect x="135" y="175" width="10" height="10" transform="rotate(0,140,180)"/><rect x="135" y="195" width="10" height="10" transform="rotate(0,140,200)"/><rect x="135" y="205" width="10" height="10" transform="rotate(0,140,210)"/><rect x="135" y="215" width="10" height="10" transform="rotate(0,140,220)"/><path d="M 135 225v 10h 10v -5a 5 5, 0, 0, 0, -5 -5" transform="rotate(90,140,230)"/><path d="M 135 245v 10h 10v -5a 5 5, 0, 0, 0, -5 -5" transform="rotate(-90,140,250)"/><path d="M 135 255v 10h 10v -5a 5 5, 0, 0, 0, -5 -5" transform="rotate(90,140,260)"/><rect x="135" y="275" width="10" height="10" transform="rotate(0,140,280)"/><path d="M 135 285v 10h 10v -5a 5 5, 0, 0, 0, -5 -5" transform="rotate(90,140,290)"/><path d="M 145 5v 10h 10v -5a 5 5, 0, 0, 0, -5 -5" transform="rotate(-90,150,10)"/><rect x="145" y="15" width="10" height="10" transform="rotate(0,150,20)"/><path d="M 145 25v 10h 10v -5a 5 5, 0, 0, 0, -5 -5" transform="rotate(90,150,30)"/><path d="M 145 45v 10h 10v -5a 5 5, 0, 0, 0, -5 -5" transform="rotate(90,150,50)"/><path d="M 145 65v 10h 10v -5a 5 5, 0, 0, 0, -5 -5" transform="rotate(-90,150,70)"/><rect x="145" y="75" width="10" height="10" transform="rotate(0,150,80)"/><rect x="145" y="85" width="10" height="10" transform="rotate(0,150,90)"/><path d="M 145 115v 10h 10v -5a 5 5, 0, 0, 0, -5 -5" transform="rotate(-90,150,120)"/><rect x="145" y="125" width="10" height="10" transform="rotate(0,150,130)"/><rect x="145" y="145" width="10" height="10" transform="rotate(0,150,150)"/><path d="M 145 155v 10h 10v -5a 5 5, 0, 0, 0, -5 -5" transform="rotate(90,150,160)"/><rect x="145" y="175" width="10" height="10" transform="rotate(0,150,180)"/><rect x="145" y="205" width="10" height="10" transform="rotate(0,150,210)"/><path d="M 145 235v 5a 5 5, 0, 0, 0, 5 5h 5v -5a 5 5, 0, 0, 0, -5 -5" transform="rotate(90,150,240)"/><path d="M 145 275v 10h 10v -5a 5 5, 0, 0, 0, -5 -5" transform="rotate(90,150,280)"/><rect x="155" y="5" width="10" height="10" transform="rotate(0,160,10)"/><path d="M 155 55v 5a 5 5, 0, 0, 0, 5 5h 5v -5a 5 5, 0, 0, 0, -5 -5" transform="rotate(90,160,60)"/><rect x="155" y="75" width="10" height="10" transform="rotate(0,160,80)"/><path d="M 155 85v 10h 10v -5a 5 5, 0, 0, 0, -5 -5" transform="rotate(90,160,90)"/><rect x="155" y="125" width="10" height="10" transform="rotate(0,160,130)"/><rect x="155" y="145" width="10" height="10" transform="rotate(0,160,150)"/><rect x="155" y="175" width="10" height="10" transform="rotate(0,160,180)"/><path d="M 155 185v 10h 10v -5a 5 5, 0, 0, 0, -5 -5" transform="rotate(90,160,190)"/><path d="M 155 205v 10h 10v -5a 5 5, 0, 0, 0, -5 -5" transform="rotate(90,160,210)"/><path d="M 155 245v 10h 10v -5a 5 5, 0, 0, 0, -5 -5" transform="rotate(-90,160,250)"/><rect x="155" y="255" width="10" height="10" transform="rotate(0,160,260)"/><rect x="165" y="5" width="10" height="10" transform="rotate(0,170,10)"/><rect x="165" y="15" width="10" height="10" transform="rotate(0,170,20)"/><path d="M 165 35v 10h 10v -5a 5 5, 0, 0, 0, -5 -5" transform="rotate(-90,170,40)"/><rect x="165" y="45" width="10" height="10" transform="rotate(0,170,50)"/><path d="M 165 65v 10h 10v -5a 5 5, 0, 0, 0, -5 -5" transform="rotate(-90,170,70)"/><rect x="165" y="75" width="10" height="10" transform="rotate(0,170,80)"/><path d="M 165 115v 10h 10v -5a 5 5, 0, 0, 0, -5 -5" transform="rotate(-90,170,120)"/><rect x="165" y="125" width="10" height="10" transform="rotate(0,170,130)"/><rect x="165" y="135" width="10" height="10" transform="rotate(0,170,140)"/><path d="M 165 145v 10h 10v -5a 5 5, 0, 0, 0, -5 -5" transform="rotate(90,170,150)"/><path d="M 165 165v 5a 5 5, 0, 0, 0, 5 5h 5v -5a 5 5, 0, 0, 0, -5 -5" transform="rotate(90,170,170)"/><path d="M 165 195v 10h 10v -5a 5 5, 0, 0, 0, -5 -5" transform="rotate(-90,170,200)"/><rect x="165" y="255" width="10" height="10" transform="rotate(0,170,260)"/><rect x="165" y="265" width="10" height="10" transform="rotate(0,170,270)"/><path d="M 165 285v 10h 10v -5a 5 5, 0, 0, 0, -5 -5" transform="rotate(-90,170,290)"/><rect x="175" y="5" width="10" height="10" transform="rotate(0,180,10)"/><path d="M 175 15v 10h 10v -5a 5 5, 0, 0, 0, -5 -5" transform="rotate(90,180,20)"/><rect x="175" y="45" width="10" height="10" transform="rotate(0,180,50)"/><path d="M 175 55v 10h 10v -5a 5 5, 0, 0, 0, -5 -5" transform="rotate(90,180,60)"/><rect x="175" y="75" width="10" height="10" transform="rotate(0,180,80)"/><path d="M 175 95v 10h 10v -5a 5 5, 0, 0, 0, -5 -5" transform="rotate(-90,180,100)"/><rect x="175" y="105" width="10" height="10" transform="rotate(0,180,110)"/><path d="M 175 155v 10h 10v -5a 5 5, 0, 0, 0, -5 -5" transform="rotate(-90,180,160)"/><path d="M 175 185v 10h 10v -5a 5 5, 0, 0, 0, -5 -5" transform="rotate(-90,180,190)"/><rect x="175" y="195" width="10" height="10" transform="rotate(0,180,200)"/><path d="M 175 205v 10h 10v -5a 5 5, 0, 0, 0, -5 -5" transform="rotate(90,180,210)"/><path d="M 175 235v 10h 10v -5a 5 5, 0, 0, 0, -5 -5" transform="rotate(-90,180,240)"/><rect x="175" y="245" width="10" height="10" transform="rotate(0,180,250)"/><rect x="175" y="265" width="10" height="10" transform="rotate(0,180,270)"/><rect x="175" y="275" width="10" height="10" transform="rotate(0,180,280)"/><path d="M 175 285v 10h 10v -5a 5 5, 0, 0, 0, -5 -5" transform="rotate(90,180,290)"/><rect x="185" y="5" width="10" height="10" transform="rotate(0,190,10)"/><path d="M 185 25v 5a 5 5, 0, 0, 0, 5 5h 5v -5a 5 5, 0, 0, 0, -5 -5" transform="rotate(90,190,30)"/><path d="M 185 65v 10h 10v -5a 5 5, 0, 0, 0, -5 -5" transform="rotate(-90,190,70)"/><rect x="185" y="75" width="10" height="10" transform="rotate(0,190,80)"/><rect x="185" y="85" width="10" height="10" transform="rotate(0,190,90)"/><rect x="185" y="105" width="10" height="10" transform="rotate(0,190,110)"/><rect x="185" y="115" width="10" height="10" transform="rotate(0,190,120)"/><path d="M 185 135v 10h 10v -5a 5 5, 0, 0, 0, -5 -5" transform="rotate(-90,190,140)"/><rect x="185" y="155" width="10" height="10" transform="rotate(0,190,160)"/><rect x="185" y="165" width="10" height="10" transform="rotate(0,190,170)"/><rect x="185" y="175" width="10" height="10" transform="rotate(0,190,180)"/><rect x="185" y="185" width="10" height="10" transform="rotate(0,190,190)"/><path d="M 185 225v 10h 10v -5a 5 5, 0, 0, 0, -5 -5" transform="rotate(-90,190,230)"/><rect x="185" y="235" width="10" height="10" transform="rotate(0,190,240)"/><rect x="185" y="245" width="10" height="10" transform="rotate(0,190,250)"/><rect x="185" y="255" width="10" height="10" transform="rotate(0,190,260)"/><rect x="195" y="5" width="10" height="10" transform="rotate(0,200,10)"/><path d="M 195 35v 10h 10v -5a 5 5, 0, 0, 0, -5 -5" transform="rotate(-90,200,40)"/><path d="M 195 55v 10h 10v -5a 5 5, 0, 0, 0, -5 -5" transform="rotate(-90,200,60)"/><rect x="195" y="85" width="10" height="10" transform="rotate(0,200,90)"/><rect x="195" y="105" width="10" height="10" transform="rotate(0,200,110)"/><path d="M 195 115v 10h 10v -5a 5 5, 0, 0, 0, -5 -5" transform="rotate(90,200,120)"/><path d="M 195 135v 10h 10v -5a 5 5, 0, 0, 0, -5 -5" transform="rotate(90,200,140)"/><rect x="195" y="155" width="10" height="10" transform="rotate(0,200,160)"/><rect x="195" y="185" width="10" height="10" transform="rotate(0,200,190)"/><rect x="195" y="195" width="10" height="10" transform="rotate(0,200,200)"/><rect x="195" y="205" width="10" height="10" transform="rotate(0,200,210)"/><rect x="195" y="225" width="10" height="10" transform="rotate(0,200,230)"/><rect x="195" y="235" width="10" height="10" transform="rotate(0,200,240)"/><rect x="195" y="245" width="10" height="10" transform="rotate(0,200,250)"/><path d="M 195 255v 10h 10v -5a 5 5, 0, 0, 0, -5 -5" transform="rotate(90,200,260)"/><path d="M 195 275v 10h 10v -5a 5 5, 0, 0, 0, -5 -5" transform="rotate(-90,200,280)"/><rect x="195" y="285" width="10" height="10" transform="rotate(0,200,290)"/><path d="M 205 5v 10h 10v -5a 5 5, 0, 0, 0, -5 -5" transform="rotate(90,210,10)"/><rect x="205" y="35" width="10" height="10" transform="rotate(0,210,40)"/><rect x="205" y="45" width="10" height="10" transform="rotate(0,210,50)"/><rect x="205" y="55" width="10" height="10" transform="rotate(0,210,60)"/><rect x="205" y="65" width="10" height="10" transform="rotate(0,210,70)"/><rect x="205" y="75" width="10" height="10" transform="rotate(0,210,80)"/><rect x="205" y="85" width="10" height="10" transform="rotate(0,210,90)"/><rect x="205" y="95" width="10" height="10" transform="rotate(0,210,100)"/><rect x="205" y="105" width="10" height="10" transform="rotate(0,210,110)"/><path d="M 205 125v 10h 10v -5a 5 5, 0, 0, 0, -5 -5" transform="rotate(-90,210,130)"/><path d="M 205 145v 10h 10v -5a 5 5, 0, 0, 0, -5 -5" transform="rotate(-90,210,150)"/><path d="M 205 155v 10h 10v -5a 5 5, 0, 0, 0, -5 -5" transform="rotate(90,210,160)"/><path d="M 205 175v 10h 10v -5a 5 5, 0, 0, 0, -5 -5" transform="rotate(-90,210,180)"/><rect x="205" y="185" width="10" height="10" transform="rotate(0,210,190)"/><rect x="205" y="205" width="10" height="10" transform="rotate(0,210,210)"/><rect x="205" y="215" width="10" height="10" transform="rotate(0,210,220)"/><rect x="205" y="225" width="10" height="10" transform="rotate(0,210,230)"/><rect x="205" y="235" width="10" height="10" transform="rotate(0,210,240)"/><rect x="205" y="245" width="10" height="10" transform="rotate(0,210,250)"/><rect x="205" y="275" width="10" height="10" transform="rotate(0,210,280)"/><rect x="205" y="285" width="10" height="10" transform="rotate(0,210,290)"/><rect x="215" y="85" width="10" height="10" transform="rotate(0,220,90)"/><rect x="215" y="95" width="10" height="10" transform="rotate(0,220,100)"/><rect x="215" y="105" width="10" height="10" transform="rotate(0,220,110)"/><rect x="215" y="125" width="10" height="10" transform="rotate(0,220,130)"/><rect x="215" y="135" width="10" height="10" transform="rotate(0,220,140)"/><path d="M 215 165v 10h 10v -5a 5 5, 0, 0, 0, -5 -5" transform="rotate(-90,220,170)"/><rect x="215" y="185" width="10" height="10" transform="rotate(0,220,190)"/><rect x="215" y="205" width="10" height="10" transform="rotate(0,220,210)"/><rect x="215" y="245" width="10" height="10" transform="rotate(0,220,250)"/><path d="M 215 255v 10h 10v -5a 5 5, 0, 0, 0, -5 -5" transform="rotate(90,220,260)"/><rect x="215" y="275" width="10" height="10" transform="rotate(0,220,280)"/><path d="M 215 285v 10h 10v -5a 5 5, 0, 0, 0, -5 -5" transform="rotate(90,220,290)"/><rect x="225" y="85" width="10" height="10" transform="rotate(0,230,90)"/><path d="M 225 105v 10h 10v -5a 5 5, 0, 0, 0, -5 -5" transform="rotate(90,230,110)"/><path d="M 225 135v 10h 10v -5a 5 5, 0, 0, 0, -5 -5" transform="rotate(90,230,140)"/><path d="M 225 155v 10h 10v -5a 5 5, 0, 0, 0, -5 -5" transform="rotate(-90,230,160)"/><path d="M 225 165v 10h 10v -5a 5 5, 0, 0, 0, -5 -5" transform="rotate(90,230,170)"/><rect x="225" y="185" width="10" height="10" transform="rotate(0,230,190)"/><rect x="225" y="195" width="10" height="10" transform="rotate(0,230,200)"/><rect x="225" y="205" width="10" height="10" transform="rotate(0,230,210)"/><path d="M 225 225v 5a 5 5, 0, 0, 0, 5 5h 5v -5a 5 5, 0, 0, 0, -5 -5" transform="rotate(90,230,230)"/><rect x="225" y="245" width="10" height="10" transform="rotate(0,230,250)"/><rect x="235" y="85" width="10" height="10" transform="rotate(0,240,90)"/><path d="M 235 95v 10h 10v -5a 5 5, 0, 0, 0, -5 -5" transform="rotate(90,240,100)"/><path d="M 235 145v 10h 10v -5a 5 5, 0, 0, 0, -5 -5" transform="rotate(-90,240,150)"/><rect x="235" y="195" width="10" height="10" transform="rotate(0,240,200)"/><rect x="235" y="205" width="10" height="10" transform="rotate(0,240,210)"/><rect x="235" y="245" width="10" height="10" transform="rotate(0,240,250)"/><rect x="235" y="255" width="10" height="10" transform="rotate(0,240,260)"/><path d="M 235 285v 10h 10v -5a 5 5, 0, 0, 0, -5 -5" transform="rotate(-90,240,290)"/><rect x="245" y="85" width="10" height="10" transform="rotate(0,250,90)"/><path d="M 245 105v 10h 10v -5a 5 5, 0, 0, 0, -5 -5" transform="rotate(-90,250,110)"/><rect x="245" y="115" width="10" height="10" transform="rotate(0,250,120)"/><path d="M 245 125v 10h 10v -5a 5 5, 0, 0, 0, -5 -5" transform="rotate(90,250,130)"/><rect x="245" y="145" width="10" height="10" transform="rotate(0,250,150)"/><rect x="245" y="155" width="10" height="10" transform="rotate(0,250,160)"/><path d="M 245 185v 5a 5 5, 0, 0, 0, 5 5h 5v -5a 5 5, 0, 0, 0, -5 -5" transform="rotate(90,250,190)"/><rect x="245" y="205" width="10" height="10" transform="rotate(0,250,210)"/><rect x="245" y="215" width="10" height="10" transform="rotate(0,250,220)"/><rect x="245" y="225" width="10" height="10" transform="rotate(0,250,230)"/><rect x="245" y="235" width="10" height="10" transform="rotate(0,250,240)"/><rect x="245" y="245" width="10" height="10" transform="rotate(0,250,250)"/><rect x="245" y="255" width="10" height="10" transform="rotate(0,250,260)"/><path d="M 245 265v 10h 10v -5a 5 5, 0, 0, 0, -5 -5" transform="rotate(90,250,270)"/><path d="M 245 285v 10h 10v -5a 5 5, 0, 0, 0, -5 -5" transform="rotate(90,250,290)"/><rect x="255" y="85" width="10" height="10" transform="rotate(0,260,90)"/><path d="M 255 95v 10h 10v -5a 5 5, 0, 0, 0, -5 -5" transform="rotate(90,260,100)"/><rect x="255" y="155" width="10" height="10" transform="rotate(0,260,160)"/><rect x="255" y="165" width="10" height="10" transform="rotate(0,260,170)"/><rect x="255" y="175" width="10" height="10" transform="rotate(0,260,180)"/><path d="M 255 195v 10h 10v -5a 5 5, 0, 0, 0, -5 -5" transform="rotate(-90,260,200)"/><rect x="255" y="205" width="10" height="10" transform="rotate(0,260,210)"/><rect x="255" y="215" width="10" height="10" transform="rotate(0,260,220)"/><rect x="255" y="235" width="10" height="10" transform="rotate(0,260,240)"/><rect x="265" y="85" width="10" height="10" transform="rotate(0,270,90)"/><path d="M 265 115v 10h 10v -5a 5 5, 0, 0, 0, -5 -5" transform="rotate(-90,270,120)"/><rect x="265" y="125" width="10" height="10" transform="rotate(0,270,130)"/><rect x="265" y="135" width="10" height="10" transform="rotate(0,270,140)"/><rect x="265" y="145" width="10" height="10" transform="rotate(0,270,150)"/><path d="M 265 175v 10h 10v -5a 5 5, 0, 0, 0, -5 -5" transform="rotate(90,270,180)"/><rect x="265" y="195" width="10" height="10" transform="rotate(0,270,200)"/><rect x="265" y="205" width="10" height="10" transform="rotate(0,270,210)"/><rect x="265" y="215" width="10" height="10" transform="rotate(0,270,220)"/><rect x="265" y="225" width="10" height="10" transform="rotate(0,270,230)"/><rect x="265" y="235" width="10" height="10" transform="rotate(0,270,240)"/><rect x="265" y="245" width="10" height="10" transform="rotate(0,270,250)"/><path d="M 265 265v 10h 10v -5a 5 5, 0, 0, 0, -5 -5" transform="rotate(-90,270,270)"/><rect x="265" y="275" width="10" height="10" transform="rotate(0,270,280)"/><rect x="275" y="85" width="10" height="10" transform="rotate(0,280,90)"/><rect x="275" y="95" width="10" height="10" transform="rotate(0,280,100)"/><rect x="275" y="105" width="10" height="10" transform="rotate(0,280,110)"/><path d="M 275 125v 10h 10v -5a 5 5, 0, 0, 0, -5 -5" transform="rotate(90,280,130)"/><rect x="275" y="145" width="10" height="10" transform="rotate(0,280,150)"/><path d="M 275 165v 5a 5 5, 0, 0, 0, 5 5h 5v -5a 5 5, 0, 0, 0, -5 -5" transform="rotate(90,280,170)"/><path d="M 275 185v 10h 10v -5a 5 5, 0, 0, 0, -5 -5" transform="rotate(-90,280,190)"/><rect x="275" y="195" width="10" height="10" transform="rotate(0,280,200)"/><rect x="275" y="245" width="10" height="10" transform="rotate(0,280,250)"/><rect x="275" y="255" width="10" height="10" transform="rotate(0,280,260)"/><path d="M 275 275v 10h 10v -5a 5 5, 0, 0, 0, -5 -5" transform="rotate(90,280,280)"/><path d="M 285 105v 10h 10v -5a 5 5, 0, 0, 0, -5 -5" transform="rotate(90,290,110)"/><path d="M 285 145v 10h 10v -5a 5 5, 0, 0, 0, -5 -5" transform="rotate(90,290,150)"/><path d="M 285 175v 5a 5 5, 0, 0, 0, 5 5h 5v -5a 5 5, 0, 0, 0, -5 -5" transform="rotate(90,290,180)"/><path d="M 285 195v 10h 10v -5a 5 5, 0, 0, 0, -5 -5" transform="rotate(90,290,200)"/><rect x="285" y="245" width="10" height="10" transform="rotate(0,290,250)"/><path d="M 285 255v 10h 10v -5a 5 5, 0, 0, 0, -5 -5" transform="rotate(90,290,260)"/></g><g class="corners-square-color-0-0"><path clip-rule="evenodd" d="M 5 5v 70h 70v -70zM 15 15h 50v 50h -50z" transform="rotate(0,40,40)"/></g><g class="corners-dot-color-0-0"><rect x="25" y="25" width="30" height="30" transform="rotate(0,40,40)"/></g><g class="corners-square-color-1-0"><path clip-rule="evenodd" d="M 225 5v 70h 70v -70zM 235 15h 50v 50h -50z" transform="rotate(90,260,40)"/></g><g class="corners-dot-color-1-0"><rect x="245" y="25" width="30" height="30" transform="rotate(90,260,40)"/></g><g class="corners-square-color-0-1"><path clip-rule="evenodd" d="M 5 225v 70h 70v -70zM 15 235h 50v 50h -50z" transform="rotate(-90,40,260)"/></g><g class="corners-dot-color-0-1"><rect x="25" y="245" width="30" height="30" transform="rotate(-90,40,260)"/></g></svg></g></g></svg></svg>